PathFileType	4	(x/y/z)	S05_PSF_T05
DataRate	CameraRate	NumFrames	NumMarkers	Units	OrigDataRate	OrigDataStartFrame	OrigNumFrames
240	240	4	50	mm	240	279	445
Frame#	Time	Sternum			R.Acromium			L.Acromium			Top.Head			R.ASIS			L.ASIS			R.PSIS			L.PSIS			R.Great.Tro			L.Great.Tro			R.Iliac.Crest			L.Iliac.Crest			V.Sacral			R.Thigh.Upper.Post			R.Thigh.Lower.Ant			R.Thigh.Lower.Post			R.Thigh.Upper.Ant			R.Knee.Lat			R.Knee.Med			R.Shank.Upper.Post			R.Shank.Lower.Ant			R.Shank.Lower.Post			R.Shank.Upper.Ant			R.Ankle.Lat			R.Ankle.Med			R.Heel.Upper			R.Heel.Med			R.Heel.Lat			R.Toe.Lat			R.Toe.Med			R.Toe.Tip			L.Thigh.Upper.Post			L.Thigh.Lower.Ant			L.Thigh.Lower.Post			L.Thigh.Upper.Ant			L.Knee.Lat			L.Shank.Upper.Post			L.Shank.Lower.Ant			L.Shank.Lower.Post			L.Shank.Upper.Ant			L.Ankle.Lat			L.Ankle.Med			L.Heel.Upper			L.Heel.Med			L.Heel.Lat			L.Toe.Lat			L.Toe.Med			L.Toe.Tip			Cervical.Spine			Back			
		X1	Y1	Z1	X2	Y2	Z2	X3	Y3	Z3	X4	Y4	Z4	X5	Y5	Z5	X6	Y6	Z6	X7	Y7	Z7	X8	Y8	Z8	X9	Y9	Z9	X10	Y10	Z10	X11	Y11	Z11	X12	Y12	Z12	X13	Y13	Z13	X14	Y14	Z14	X15	Y15	Z15	X16	Y16	Z16	X17	Y17	Z17	X18	Y18	Z18	X19	Y19	Z19	X20	Y20	Z20	X21	Y21	Z21	X22	Y22	Z22	X23	Y23	Z23	X24	Y24	Z24	X25	Y25	Z25	X26	Y26	Z26	X27	Y27	Z27	X28	Y28	Z28	X29	Y29	Z29	X30	Y30	Z30	X31	Y31	Z31	X32	Y32	Z32	X33	Y33	Z33	X34	Y34	Z34	X35	Y35	Z35	X36	Y36	Z36	X37	Y37	Z37	X38	Y38	Z38	X39	Y39	Z39	X40	Y40	Z40	X41	Y41	Z41	X42	Y42	Z42	X43	Y43	Z43	X44	Y44	Z44	X45	Y45	Z45	X46	Y46	Z46	X47	Y47	Z47	X48	Y48	Z48	X49	Y49	Z49	X50	Y50	Z50	

279	1.1583	-28.796	1232.7	310.58	-120.18	1492.3	466.75	-142.46	1508.4	141.14	-125.11	1804.3	284.12	-108.14	983.5	450.18	-71.109	987.35	201.81	-294.53	1007.3	329.06	-279.34	1000.5	239.08	-214.66	915.08	497.01	-137.33	903.84	112.7	-198.4	1069.9	473.21	-159.03	1061.9	137.55	-302.49	971.03	296.29	-225.39	695.17	492.29	-187.59	608.46	451.5	-258.29	613.27	469.17	-156.91	690.55	477.46	-300.44	520.92	447.5	-283.48	502.5	316.04	-465.8	328.07	429.33	-433.76	243.52	431.36	-492.94	257.91	410.08	-404.54	314.35	447.58	-487.62	147.94	410.51	-464.16	172.24	323.41	-569.44	117.95	346.71	-565.63	85.413	318.76	-569.4	87.894	383.5	-417.59	34.832	445.17	-374.97	38.709	326.56	-313.64	44.847	374.26	-66.085	676.04	119.09	29.59	630.84	151.66	-28.754	589.95	138.08	0.18189	715.76	134.67	13.545	511.72	147.68	20.475	302.77	146.47	104.5	273.14	146.5	45.71	235.24	164.11	76.264	337.54	135.75	131.62	116.18	167.31	162.11	146.42	250.8	100.28	54.259	223.93	123.61	37.465	256.36	111.76	29.229	196.47	276.56	88.746	130.04	298.39	116.23	244.66	347.97	150	186.03	-172.6	1541.3	310.37	-288.73	1269.4	310.67
280	1.1625	-22.778	1232.5	309.8	-114.16	1492.2	465.78	-136.78	1508.1	140.15	-119.49	1804.1	282.94	-102.18	983.26	449.76	-64.888	987.29	201.47	-288.43	1007.1	328.34	-273.19	1000.4	238.35	-208.99	914.89	496.45	-130.92	903.92	112.23	-192.41	1069.7	472.64	-152.8	1061.7	136.98	-296.38	970.87	295.51	-220.01	695.11	492.14	-182.09	608.26	451.8	-252.84	613.13	469.28	-151.47	690.45	477.62	-295.11	520.84	447.84	-277.68	501.95	316.57	-462.25	329.62	429.66	-431.11	244.69	431.83	-490.06	259.68	410.35	-401.18	315.22	448.03	-485.84	149.51	410.96	-462.02	173.51	324.03	-567.79	120.73	347.16	-564.41	88.308	319.02	-568.22	90.478	383.8	-417.44	34.886	445.24	-374.76	38.855	326.7	-313.56	44.688	374.34	-59.843	676.16	119.12	35.779	630.88	151.7	-22.616	590.06	138.27	6.5329	715.81	134.48	19.553	511.77	147.65	24.938	302.7	146.48	108.69	272.29	146.88	49.454	234.91	164.15	81.099	336.96	136.04	133.85	115.25	167.52	164.54	144.89	251.24	101.31	54.522	224.07	124.22	37.114	256.53	112.24	29.29	196.61	278.25	85.581	130.65	300.43	112.33	245.36	350.66	145.39	186.87	-166.79	1541.2	309.4	-282.8	1269.2	310.04
281	1.1667	-16.734	1232.4	309.02	-108.13	1492.2	464.81	-131.1	1507.8	139.14	-113.86	1804.1	281.74	-96.205	983.07	449.33	-58.646	987.29	201.11	-282.3	1007	327.6	-267.02	1000.4	237.61	-203.28	914.73	495.88	-124.5	904.08	111.74	-186.38	1069.6	472.05	-146.55	1061.6	136.4	-290.24	970.76	294.73	-214.51	695.07	492	-176.43	608.1	452.12	-247.24	613	469.4	-145.9	690.4	477.78	-289.59	520.76	448.21	-271.66	501.38	317.16	-458.53	331.22	429.99	-428.32	245.92	432.33	-487.01	261.54	410.62	-397.67	316.14	448.51	-483.92	151.17	411.42	-459.75	174.83	324.69	-565.97	123.67	347.62	-563.04	91.376	319.28	-566.91	93.224	384.08	-417.28	34.967	445.3	-374.51	39.024	326.85	-313.48	44.523	374.42	-53.697	676.32	119.11	41.859	630.91	151.69	-16.599	590.18	138.4	12.8	715.86	134.25	25.476	511.86	147.57	29.374	302.68	146.44	112.85	271.51	147.21	53.181	234.64	164.14	85.895	336.45	136.29	136.03	114.39	167.67	166.95	143.47	251.61	102.34	54.884	224.19	124.79	36.884	256.67	112.68	29.44	196.71	279.86	82.467	131.18	302.42	108.52	245.95	353.28	140.82	187.59	-160.98	1541.1	308.42	-276.84	1269.1	309.4
282	1.1708	-10.664	1232.3	308.23	-102.11	1492.2	463.81	-125.4	1507.6	138.12	-108.22	1804.1	280.52	-90.199	982.95	448.88	-52.391	987.36	200.74	-276.14	1006.9	326.87	-260.84	1000.5	236.86	-197.51	914.6	495.29	-118.09	904.3	111.25	-180.34	1069.6	471.45	-140.26	1061.6	135.83	-284.07	970.71	293.94	-208.88	695.04	491.88	-170.6	607.97	452.47	-241.47	612.87	469.54	-140.18	690.4	477.96	-283.88	520.68	448.64	-265.41	500.8	317.81	-454.62	332.89	430.32	-425.38	247.22	432.87	-483.79	263.47	410.91	-393.99	317.11	449.02	-481.86	152.9	411.92	-457.31	176.21	325.4	-563.97	126.77	348.07	-561.5	94.623	319.53	-565.46	96.137	384.35	-417.11	35.081	445.34	-374.23	39.222	327.01	-313.39	44.351	374.53	-47.641	676.51	119.05	47.837	630.95	151.63	-10.698	590.32	138.46	18.985	715.93	133.99	31.319	511.98	147.45	33.775	302.72	146.35	116.96	270.8	147.48	56.883	234.45	164.07	90.645	336	136.47	138.17	113.6	167.78	169.32	142.14	251.91	103.38	55.326	224.29	125.33	36.765	256.78	113.1	29.667	196.79	281.38	79.421	131.62	304.34	104.82	246.43	355.82	136.33	188.18	-155.17	1541	307.42	-270.87	1269	308.75
